<svg xmlns="http://www.w3.org/2000/svg" viewBox="0 0 217.586 128">
	<g data-name="katman 2">
		<path d="M210.248 34.678C197.736 11.992 178.343.158 152.269.051 123.467-.07 94.658.044 65.849.12a72 72 0 0 0-11.353.633C16.988 6.819-6.743 43.517 1.71 78.721c6.521 27.118 30.651 47.911 58.599 48.975 16.12.633 32.291.114 48.424.114v.133c14.455 0 28.91-.146 43.365.038a64.8 64.8 0 0 0 36.514-10.46c27.144-17.26 37.16-54.686 21.635-82.843M56.351 85.901a21.95 21.95 0 0 1-21.762-22.395c.108-11.732 10.435-21.452 22.604-21.274 11.587.165 20.85 9.877 20.831 21.85s-9.915 21.907-21.673 21.819m104.712-.108c-11.929.044-21.433-9.573-21.527-21.774-.082-11.897 9.497-21.711 21.236-21.736a21.755 21.755 0 1 1 .279 43.511Z" data-name="katman 1"/>
	</g>
</svg>
