<?xml version="1.0" encoding="utf-8"?>
<!-- Generator: Adobe Illustrator 23.0.3, SVG Export Plug-In . SVG Version: 6.00 Build 0)  -->
<svg version="1.1" id="katman_1" xmlns="http://www.w3.org/2000/svg" xmlns:xlink="http://www.w3.org/1999/xlink" x="0px" y="0px"
	 viewBox="0 0 48 48" style="enable-background:new 0 0 48 48;" xml:space="preserve">
<path d="M22.5,29.3h3l0.1-2.2c0.4-0.1,0.8-0.2,1.1-0.4c0.3-0.2,0.7-0.5,0.9-0.7l2.1,0.7l1.4-2.4L29.6,23c0.2-0.5,0.2-1,0.2-1.5
	s-0.1-1-0.2-1.5l1.5-1.2l-1.4-2.4l-2.1,0.7c-0.3-0.3-0.6-0.5-1-0.7c-0.4-0.2-0.7-0.4-1.1-0.5l-0.1-2.2h-3l-0.1,2.2
	c-0.4,0.1-0.7,0.3-1.1,0.5c-0.4,0.2-0.7,0.4-1,0.7l-2.1-0.7l-1.4,2.4l1.5,1.2c-0.2,0.5-0.2,1-0.2,1.5s0.1,1,0.2,1.5l-1.5,1.2
	l1.4,2.4l2.1-0.7c0.3,0.3,0.6,0.5,0.9,0.7c0.3,0.2,0.7,0.4,1.1,0.4L22.5,29.3z M21.5,24.1c-0.7-0.7-1-1.5-1-2.5c0-1,0.3-1.8,1-2.5
	c0.7-0.7,1.5-1,2.5-1s1.8,0.3,2.5,1c0.7,0.7,1,1.5,1,2.5c0,1-0.3,1.8-1,2.5c-0.7,0.7-1.5,1-2.5,1C23,25.1,22.2,24.8,21.5,24.1z"/>
</svg>
